
 
http://www.imdb.com/title/tt0795461/



A couple begin to experience some unusual activity after bringing their newborn son home from the hospital. With the help of home-surveillance cameras and a team of experts, they learn they're being stalked by a nefarious demon. 



Director:
 Malcolm D. Lee 

Writers:
 Phil Beauman (based on characters created by), Jason Friedberg (based on characters created by)

Stars:
 Ashley Tisdale, Simon Rex, Charlie Sheen 

Genres:
  Comedy 

Country:
 USA 

Language:
 English 




Format                                   : MPEG-4
Format profile                           : Base Media
Codec ID                                 : isom
File size                                : 1.30 GiB
Duration                                 : 1h 10mn
Overall bit rate mode                    : Variable
Overall bit rate                         : 2 631 Kbps
Encoded date                             : UTC 2013-04-19 19:14:16
Tagged date                              : UTC 2013-04-19 19:14:22

Video
ID                                       : 2
Format                                   : AVC
Format/Info                              : Advanced Video Codec
Format profile                           : Baseline@L3.1
Format settings, CABAC                   : No
Format settings, ReFrames                : 1 frame
Format settings, GOP                     : M=1, N=24
Muxing mode                              : Container profile=Baseline@3.0
Codec ID                                 : avc1
Codec ID/Info                            : Advanced Video Coding
Duration                                 : 1h 10mn
Bit rate mode                            : Variable
Bit rate                                 : 2 496 Kbps
Maximum bit rate                         : 3 750 Kbps
Width                                    : 848 pixels
Height                                   : 480 pixels
Display aspect ratio                     : 16:9
Original display aspect ratio            : 16:9
Frame rate mode                          : Constant
Frame rate                               : 29.970 fps
Color space                              : YUV
Chroma subsampling                       : 4:2:0
Bit depth                                : 8 bits
Scan type                                : Progressive
Bits/(Pixel*Frame)                       : 0.205
Stream size                              : 1.24 GiB (95%)
Language                                 : English

Audio
ID                                       : 1
Format                                   : AAC
Format/Info                              : Advanced Audio Codec
Format profile                           : LC
Codec ID                                 : 40
Duration                                 : 1h 10mn
Bit rate mode                            : Variable
Bit rate                                 : 128 Kbps
Maximum bit rate                         : 175 Kbps
Channel(s)                               : 2 channels
Channel positions                        : Front: L R
Sampling rate                            : 48.0 KHz
Compression mode                         : Lossy
Stream size                              : 64.9 MiB (5%)
Language                                 : English

Text
ID                                       : 3
Format                                   : Apple text
Codec ID                                 : text
Duration                                 : 1h 0mn
Bit rate mode                            : Constant
Bit rate                                 : 0 bps
Stream size                              : 110 Bytes (0%)
Encoded date                             : UTC 2013-04-19 19:14:22
Tagged date                              : UTC 2013-04-19 19:14:22





    	http://www.shotpix.com/images/81187711003550199503.png
    	http://www.shotpix.com/images/50870995917410248148.png
    	http://www.shotpix.com/images/33377767716331705485.png
    	http://www.shotpix.com/images/48206734480226798246.png
    	http://www.shotpix.com/images/42514562225866689673.png
    	http://www.shotpix.com/images/82947324421725189450.png